<svg height="512" viewBox="0 0 512 512" width="512" xmlns="http://www.w3.org/2000/svg"><g><g><path d="m496 344v16a24.006 24.006 0 0 1 -24 24h-432a24.006 24.006 0 0 1 -24-24v-16z" fill="#57565c"/><path d="m496 88v256h-480v-256a24.006 24.006 0 0 1 24-24h432a24.006 24.006 0 0 1 24 24z" fill="#83d8f4"/><path d="m320 424h-128l16-40h96z" fill="#e0e0e2"/><path d="m160 424h192v24h-192z" fill="#57565c"/><path d="m216 280-40 24-40-24v-48l40-24 40 24z" fill="#ffda44"/><path d="m264 184-40 24-40-24v-48l40-24 40 24z" fill="#ff9811"/><path d="m320 280-40 24-40-24v-48l40-24 40 24z" fill="#ff9811"/><path d="m368 184-40 24-40-24v-48l40-24 40 24z" fill="#ffda44"/></g><g><path d="m472 56h-432a32.036 32.036 0 0 0 -32 32v272a32.036 32.036 0 0 0 32 32h156.18l-9.6 24h-26.58a8 8 0 0 0 -8 8v16h-64a8 8 0 0 0 0 16h336a8 8 0 0 0 0-16h-64v-16a8 8 0 0 0 -8-8h-26.58l-9.6-24h156.18a32.036 32.036 0 0 0 32-32v-272a32.036 32.036 0 0 0 -32-32zm-128 376v8h-176v-8zm-140.18-16 9.6-24h85.16l9.6 24zm284.18-56a16.021 16.021 0 0 1 -16 16h-432a16.021 16.021 0 0 1 -16-16v-8h464zm0-24h-464v-248a16.021 16.021 0 0 1 16-16h432a16.021 16.021 0 0 1 16 16z"/><path d="m131.884 286.86 40 24a8 8 0 0 0 8.232 0l40-24a8 8 0 0 0 3.884-6.86v-48a8 8 0 0 0 -3.884-6.86l-40-24a8 8 0 0 0 -8.232 0l-40 24a8 8 0 0 0 -3.884 6.86v48a8 8 0 0 0 3.884 6.86zm12.116-50.331 32-19.2 32 19.2v38.942l-32 19.2-32-19.2z"/><path d="m376 312h-44.69l-18.41-18.41 11.22-6.73a8 8 0 0 0 3.88-6.86v-48a8 8 0 0 0 -3.88-6.86l-40-24a8.015 8.015 0 0 0 -8.24 0l-40 24a8 8 0 0 0 -3.88 6.86v48a8 8 0 0 0 3.88 6.86l40 24a8.015 8.015 0 0 0 8.24 0l14.64-8.79 23.58 23.59a8.008 8.008 0 0 0 5.66 2.34h48a8 8 0 0 0 0-16zm-64-36.53-10.76 6.46-15.58-15.59a8 8 0 0 0 -11.32 11.32l12.76 12.75-7.1 4.26-32-19.2v-38.94l32-19.2 32 19.2z"/><path d="m283.884 190.86 40 24a8 8 0 0 0 8.232 0l40-24a8 8 0 0 0 3.884-6.86v-48a8 8 0 0 0 -3.884-6.86l-40-24a8 8 0 0 0 -8.232 0l-40 24a8 8 0 0 0 -3.884 6.86v48a8 8 0 0 0 3.884 6.86zm12.116-50.331 32-19.2 32 19.2v38.942l-32 19.2-32-19.2z"/><path d="m136 96h35.883l18.97 26.558-10.969 6.582a8 8 0 0 0 -3.884 6.86v48a8 8 0 0 0 3.884 6.86l40 24a8 8 0 0 0 8.232 0l40-24a8 8 0 0 0 3.884-6.86v-48a8 8 0 0 0 -3.884-6.86l-40-24a8 8 0 0 0 -8.232 0l-15.267 9.16-22.107-30.95a8 8 0 0 0 -6.51-3.35h-40a8 8 0 0 0 0 16zm88 25.33 32 19.2v38.942l-32 19.2-32-19.2v-38.943l8.183-4.909 9.307 13.03a8 8 0 1 0 13.02-9.3l-8.563-11.988z"/><path d="m56 96h56a8 8 0 0 0 0-16h-56a8 8 0 0 0 0 16z"/><path d="m56 120h56a8 8 0 0 0 0-16h-56a8 8 0 0 0 0 16z"/><path d="m56 144h56a8 8 0 0 0 0-16h-56a8 8 0 0 0 0 16z"/><path d="m400 280h56a8 8 0 0 0 0-16h-56a8 8 0 0 0 0 16z"/><path d="m400 304h56a8 8 0 0 0 0-16h-56a8 8 0 0 0 0 16z"/><path d="m400 328h24a8 8 0 0 0 0-16h-24a8 8 0 0 0 0 16z"/><path d="m456 312h-8a8 8 0 0 0 0 16h8a8 8 0 0 0 0-16z"/></g></g></svg>