<svg id="Capa_1" enable-background="new 0 0 512 512" height="512" viewBox="0 0 512 512" width="512" xmlns="http://www.w3.org/2000/svg"><g><g><path d="m497.102 252.898h-481.387v161.049c0 5.523 4.477 10 10 10h461.387c5.523 0 10-4.477 10-10z" fill="#e7ecf6"/></g><g><path d="m471.249 252.898v171.049h15.933c5.479 0 9.92-4.441 9.92-9.92v-161.129z" fill="#d8e2f1"/></g><g><path d="m466.158 211.583h-419.499c-4.635 0-9.052 1.966-12.154 5.41l-16.317 18.117c-1.592 1.767-2.472 4.061-2.472 6.439v17.72h481.387v-17.72c0-2.378-.881-4.672-2.472-6.439l-16.317-18.117c-3.104-3.443-7.521-5.41-12.156-5.41z" fill="#dd636e"/></g><g><path d="m494.63 235.11-16.317-18.117c-3.102-3.444-7.519-5.41-12.154-5.41h-25.656l24.85 27.59c3.795 4.214 5.896 9.684 5.896 15.356v4.741h25.853v-17.721c0-2.378-.881-4.672-2.472-6.439z" fill="#da4a54"/></g><g><path d="m154.032 153.194h204.752v145.576h-204.752z" fill="#e7ecf6"/></g><g><path d="m332.932 153.194h25.853v145.576h-25.853z" fill="#d8e2f1"/></g><g><path d="m76.61 346.32c-14.278 0-25.853 11.575-25.853 25.853v51.773h51.707v-51.773c0-14.278-11.575-25.853-25.854-25.853z" fill="#4a80aa"/></g><g><path d="m166.509 346.32c-14.278 0-25.853 11.575-25.853 25.853v51.773h51.707v-51.773c0-14.278-11.575-25.853-25.854-25.853z" fill="#4a80aa"/></g><g><path d="m256.409 346.32c-14.278 0-25.853 11.575-25.853 25.853v51.773h51.707v-51.773c-.001-14.278-11.576-25.853-25.854-25.853z" fill="#4a80aa"/></g><g><path d="m346.308 346.32c-14.278 0-25.853 11.575-25.853 25.853v51.773h51.707v-51.773c-.001-14.278-11.576-25.853-25.854-25.853z" fill="#4a80aa"/></g><g><path d="m436.207 346.32c-14.278 0-25.853 11.575-25.853 25.853v51.773h51.707v-51.773c-.001-14.278-11.576-25.853-25.854-25.853z" fill="#4a80aa"/></g><g><path d="m76.61 346.32c-3.69 0-7.196.778-10.372 2.171 9.113 3.997 15.481 13.094 15.481 23.682v51.773h20.744v-51.773c.001-14.279-11.574-25.853-25.853-25.853z" fill="#407093"/></g><g><path d="m166.51 346.32c-3.69 0-7.196.778-10.372 2.171 9.113 3.997 15.481 13.094 15.481 23.682v51.773h20.744v-51.773c0-14.279-11.575-25.853-25.853-25.853z" fill="#407093"/></g><g><path d="m256.409 346.32c-3.69 0-7.196.778-10.372 2.171 9.113 3.997 15.481 13.094 15.481 23.682v51.773h20.744v-51.773c0-14.279-11.575-25.853-25.853-25.853z" fill="#407093"/></g><g><path d="m346.308 346.32c-3.69 0-7.196.778-10.372 2.171 9.113 3.997 15.481 13.094 15.481 23.682v51.773h20.744v-51.773c0-14.279-11.575-25.853-25.853-25.853z" fill="#407093"/></g><g><path d="m436.207 346.32c-3.075 0-6.023.539-8.758 1.524 9.967 3.589 17.095 13.125 17.095 24.329v51.773h17.516v-51.773c0-14.279-11.575-25.853-25.853-25.853z" fill="#407093"/></g><g><path d="m385.733 169.602v-13.532c0-3.002-1.694-5.747-4.376-7.093l-118.274-59.354c-4.2-2.108-9.148-2.108-13.348 0l-118.274 59.355c-2.683 1.346-4.376 4.091-4.376 7.093v13.532c0 2.739 2.221 4.96 4.96 4.96h248.728c2.739-.001 4.96-2.221 4.96-4.961z" fill="#dd636e"/></g><g><path d="m381.356 148.978-9.573-4.804v10.363c0 2.739-2.221 4.96-4.96 4.96h-239.739v10.106c0 2.739 2.221 4.96 4.96 4.96h248.728c2.739 0 4.96-2.221 4.96-4.96v-13.533c.001-3.001-1.693-5.746-4.376-7.092z" fill="#da4a54"/></g><g><path d="m498.608 321.779h-485.216c-3.287 0-5.952-2.665-5.952-5.952v-20.354c0-3.287 2.665-5.952 5.952-5.952h485.216c3.287 0 5.952 2.665 5.952 5.952v20.354c0 3.288-2.665 5.952-5.952 5.952z" fill="#d8e2f1"/></g><g><path d="m498.608 289.521h-8.278v12.076c0 3.287-2.665 5.952-5.952 5.952h-476.938v8.278c0 3.287 2.665 5.952 5.952 5.952h485.216c3.287 0 5.952-2.665 5.952-5.952v-20.354c0-3.287-2.665-5.952-5.952-5.952z" fill="#b9cbea"/></g><g><circle cx="256.409" cy="232.538" fill="#f6e266" r="46.901"/></g><g><path d="m281.172 192.711c4.479 7.188 7.074 15.671 7.074 24.763 0 25.903-20.998 46.901-46.901 46.901-9.093 0-17.576-2.595-24.763-7.074 8.28 13.289 23.017 22.138 39.827 22.138 25.903 0 46.901-20.999 46.901-46.901 0-16.81-8.849-31.547-22.138-39.827z" fill="#f1d333"/></g><g><path d="m301.453 142.459-41.04-20.595c-2.52-1.265-5.489-1.265-8.009 0l-41.04 20.595c-1.87.938-1.202 3.757.89 3.757h88.309c2.092 0 2.76-2.819.89-3.757z" fill="#4a80aa"/></g><g><path d="m276.282 146.216h24.281c2.092 0 2.76-2.819.89-3.757l-41.04-20.595c-2.52-1.265-5.489-1.265-8.009 0l-12.324 6.185z" fill="#407093"/></g><g><path d="m269.331 225.098h-5.482v-6.198c0-4.109-3.331-7.44-7.44-7.44s-7.44 3.331-7.44 7.44v13.638c0 4.109 3.331 7.44 7.44 7.44h12.922c4.109 0 7.44-3.331 7.44-7.44s-3.331-7.44-7.44-7.44z"/><g><path d="m304.791 135.81h-.001l-41.04-20.596c-4.596-2.307-10.085-2.306-14.682 0l-41.041 20.596c-3.921 1.969-5.953 6.326-4.942 10.595 1.012 4.269 4.783 7.251 9.17 7.251h88.309c4.387 0 8.158-2.982 9.17-7.251 1.01-4.269-1.021-8.626-4.943-10.595zm-69.501 2.966 20.451-10.263c.419-.21.919-.209 1.335 0l20.451 10.263z"/><path d="m504.542 283.486v-41.936c0-4.218-1.562-8.286-4.385-11.42l-16.317-18.116c-4.505-5.002-10.95-7.871-17.682-7.871h-99.933v-22.141h14.548c6.848 0 12.4-5.552 12.4-12.4v-13.532c0-5.852-3.249-11.117-8.48-13.743l-118.273-59.354c-6.268-3.145-13.753-3.146-20.022 0l-118.274 59.354c-5.23 2.625-8.479 7.891-8.479 13.743v13.532c0 6.848 5.552 12.4 12.4 12.4h14.548v22.141h-99.935c-6.743 0-13.169 2.861-17.681 7.871l-16.318 18.118c-2.822 3.133-4.384 7.201-4.384 11.418v41.553c-4.852 2.013-8.275 6.798-8.275 12.37v20.354c0 5.572 3.423 10.357 8.275 12.371v85.828c0 9.588 7.772 17.36 17.36 17.36h461.547c9.588 0 17.36-7.772 17.36-17.36v-19.356c0-4.074-3.139-7.626-7.211-7.748-4.213-.126-7.669 3.251-7.669 7.436v19.668c0 1.37-1.11 2.48-2.48 2.48h-17.682v-43.67c0-18.628-15.244-34.269-33.869-33.952-18.094.308-32.717 15.122-32.717 33.288v44.333h-23.313v-43.67c0-18.628-15.244-34.269-33.869-33.952-18.093.308-32.718 15.122-32.718 33.288v44.333h-23.313v-43.67c0-18.628-15.244-34.269-33.869-33.952-18.094.308-32.717 15.122-32.717 33.288v44.333h-23.313v-43.67c0-18.628-15.244-34.269-33.869-33.951-18.093.309-32.717 15.123-32.717 33.288v44.333h-23.313v-43.67c0-18.628-15.244-34.269-33.869-33.952-18.094.309-32.717 15.123-32.717 33.288v44.333h-17.682c-1.37 0-2.48-1.11-2.48-2.48v-84.807h355.138c4.109 0 7.44-3.331 7.44-7.44 0-4.109-3.331-7.44-7.44-7.44h-363.413v-17.378h164.018c4.074 0 7.626-3.139 7.748-7.211.126-4.213-3.252-7.669-7.436-7.669h-17.738v-100.075h74.998c-20.125 7.969-34.403 27.61-34.403 50.535 0 22.026 13.18 41.019 32.06 49.544h-17.234c-4.074 0-7.626 3.139-7.748 7.211-.126 4.213 3.252 7.669 7.436 7.669h280.539v17.378h-82.492c-4.109 0-7.44 3.331-7.44 7.44 0 4.109 3.331 7.44 7.44 7.44h75.034v29.276c0 4.074 3.139 7.626 7.211 7.749 4.213.126 7.669-3.252 7.669-7.436v-30.993c4.412-2.193 7.458-6.736 7.458-11.987v-20.354c0-5.253-3.046-9.795-7.458-11.988zm-86.748 88.687c0-10.153 8.26-18.413 18.413-18.413s18.413 8.26 18.413 18.413v44.333h-36.827v-44.333zm-89.899 0c0-10.153 8.26-18.413 18.413-18.413s18.413 8.26 18.413 18.413v44.333h-36.826zm-89.9 0c0-10.153 8.26-18.413 18.413-18.413s18.413 8.26 18.413 18.413v44.333h-36.827v-44.333zm-89.899 0c0-10.153 8.26-18.413 18.413-18.413s18.413 8.26 18.413 18.413v44.333h-36.826zm-89.899 0c0-10.153 8.26-18.413 18.413-18.413s18.413 8.26 18.413 18.413v44.333h-36.826zm33.968-153.15h20.027v32.807h-20.027zm-34.394 0h19.394v32.807h-19.394zm-34.616 22.526c0-.54.199-1.058.561-1.46l16.318-18.117c.777-.863 1.713-1.547 2.737-2.044v31.901h-19.616zm123.437 40.532h-123.437v-15.371h123.437zm0-30.251h-19.4v-32.807h19.4zm287.61-32.807h20.027v32.807h-20.027zm-35.027 0h20.027v32.807h-20.027zm-15 0v32.807h-17.95v-32.807zm-249.651-51.901v-11.052c0-.189.105-.359.274-.444l118.273-59.354c2.089-1.049 4.585-1.049 6.675 0l118.273 59.354c.169.085.274.255.274.444v11.052zm82.423 65.416c0-21.759 17.702-39.461 39.461-39.461s39.461 17.702 39.461 39.461-17.702 39.461-39.461 39.461c-21.758 0-39.461-17.702-39.461-39.461zm134.398 49.543h-72.655c18.88-8.525 32.06-27.518 32.06-49.544 0-22.926-14.278-42.567-34.403-50.535h74.998zm138.317 0h-123.437v-15.371h123.437zm0-30.251h-20.432v-32.248c1.347.496 2.575 1.303 3.554 2.391l16.318 18.117c.362.401.561.92.561 1.46v10.28z"/></g></g></g></svg>